<?xml version="1.0" encoding="utf-8"?>
<!-- Generator: Adobe Illustrator 15.1.0, SVG Export Plug-In . SVG Version: 6.00 Build 0)  -->
<!DOCTYPE svg PUBLIC "-//W3C//DTD SVG 1.1//EN" "http://www.w3.org/Graphics/SVG/1.1/DTD/svg11.dtd">
<svg version="1.1" id="anaglyph_x5F_rounded" xmlns="http://www.w3.org/2000/svg" xmlns:xlink="http://www.w3.org/1999/xlink"
	 x="0px" y="0px" width="24px" height="24px" viewBox="0 0 24 24" enable-background="new 0 0 24 24" xml:space="preserve">
<rect x="4.5" y="10.5" fill="#36A9E1" stroke="#1D1D1B" stroke-width="0.5" stroke-miterlimit="10" width="6" height="3"/>
<rect x="13.5" y="10.5" fill="#BE1622" stroke="#1D1D1B" stroke-width="0.5" stroke-miterlimit="10" width="6" height="3"/>
<g>
	<path fill="#FFFFFF" d="M3.5,7.5C3.225,7.5,3,7.725,3,8v8c0,0.275,0.225,0.5,0.5,0.5H10c0.275,0,0.659-0.159,0.854-0.354
		l0.793-0.793c0.194-0.194,0.513-0.194,0.707,0l0.793,0.793C13.341,16.341,13.725,16.5,14,16.5h6.5c0.275,0,0.5-0.225,0.5-0.5V8
		c0-0.275-0.225-0.5-0.5-0.5H3.5z M10.5,13c0,0.275-0.225,0.5-0.5,0.5H5c-0.275,0-0.5-0.225-0.5-0.5v-2c0-0.275,0.225-0.5,0.5-0.5h5
		c0.275,0,0.5,0.225,0.5,0.5V13z M19.5,13c0,0.275-0.225,0.5-0.5,0.5h-5c-0.275,0-0.5-0.225-0.5-0.5v-2c0-0.275,0.225-0.5,0.5-0.5h5
		c0.275,0,0.5,0.225,0.5,0.5V13z"/>
	<path fill="none" stroke="#1D1D1B" stroke-width="0.5" stroke-miterlimit="10" d="M3.5,7.5C3.225,7.5,3,7.725,3,8v8
		c0,0.275,0.225,0.5,0.5,0.5H10c0.275,0,0.659-0.159,0.854-0.354l0.793-0.793c0.194-0.194,0.513-0.194,0.707,0l0.793,0.793
		C13.341,16.341,13.725,16.5,14,16.5h6.5c0.275,0,0.5-0.225,0.5-0.5V8c0-0.275-0.225-0.5-0.5-0.5H3.5z M10.5,13
		c0,0.275-0.225,0.5-0.5,0.5H5c-0.275,0-0.5-0.225-0.5-0.5v-2c0-0.275,0.225-0.5,0.5-0.5h5c0.275,0,0.5,0.225,0.5,0.5V13z M19.5,13
		c0,0.275-0.225,0.5-0.5,0.5h-5c-0.275,0-0.5-0.225-0.5-0.5v-2c0-0.275,0.225-0.5,0.5-0.5h5c0.275,0,0.5,0.225,0.5,0.5V13z"/>
</g>
</svg>
