<?xml version="1.0" encoding="utf-8"?>
<!-- Generator: Adobe Illustrator 15.1.0, SVG Export Plug-In . SVG Version: 6.00 Build 0)  -->
<!DOCTYPE svg PUBLIC "-//W3C//DTD SVG 1.1//EN" "http://www.w3.org/Graphics/SVG/1.1/DTD/svg11.dtd">
<svg version="1.1" id="cardboard_x5F_rounded" xmlns="http://www.w3.org/2000/svg" xmlns:xlink="http://www.w3.org/1999/xlink"
	 x="0px" y="0px" width="24px" height="24px" viewBox="0 0 24 24" enable-background="new 0 0 24 24" xml:space="preserve">
<g>
	<path fill="#FFFFFF" d="M4,6C3.45,6,3,6.45,3,7v10c0,0.55,0.45,1,1,1h4c0.55,0,1.318-0.318,1.707-0.707l1.586-1.586
		c0.389-0.389,1.016-0.38,1.394,0.02l1.461,1.547C14.525,17.673,15.284,18,15.834,18H20c0.55,0,1-0.45,1-1V7c0-0.55-0.45-1-1-1H4z
		 M7.5,15c-1.656,0-3-1.344-3-3s1.344-3,3-3s3,1.344,3,3S9.156,15,7.5,15z M16.5,15c-1.656,0-3-1.344-3-3s1.344-3,3-3s3,1.344,3,3
		S18.156,15,16.5,15z"/>
	<path fill="none" stroke="#1D1D1B" stroke-width="0.2" stroke-miterlimit="10" d="M4,6C3.45,6,3,6.45,3,7v10c0,0.55,0.45,1,1,1h4
		c0.55,0,1.318-0.318,1.707-0.707l1.586-1.586c0.389-0.389,1.016-0.38,1.394,0.02l1.461,1.547C14.525,17.673,15.284,18,15.834,18H20
		c0.55,0,1-0.45,1-1V7c0-0.55-0.45-1-1-1H4z M7.5,15c-1.656,0-3-1.344-3-3s1.344-3,3-3s3,1.344,3,3S9.156,15,7.5,15z M16.5,15
		c-1.656,0-3-1.344-3-3s1.344-3,3-3s3,1.344,3,3S18.156,15,16.5,15z"/>
</g>
<path fill="none" stroke="#1D1D1B" stroke-width="0.2" stroke-miterlimit="10" d="M9,12c0,0.829-0.671,1.5-1.5,1.5"/>
<path fill="none" stroke="#1D1D1B" stroke-width="0.2" stroke-miterlimit="10" d="M18,12c0,0.829-0.671,1.5-1.5,1.5"/>
</svg>
