<?xml version="1.0" encoding="utf-8"?>
<!-- Generator: Adobe Illustrator 15.1.0, SVG Export Plug-In . SVG Version: 6.00 Build 0)  -->
<!DOCTYPE svg PUBLIC "-//W3C//DTD SVG 1.1//EN" "http://www.w3.org/Graphics/SVG/1.1/DTD/svg11.dtd">
<svg version="1.1" id="Layer_1" xmlns="http://www.w3.org/2000/svg" xmlns:xlink="http://www.w3.org/1999/xlink" x="0px" y="0px"
	 width="24px" height="24px" viewBox="0 0 24 24" enable-background="new 0 0 24 24" xml:space="preserve">
<g>
	<path fill="#FFFFFF" d="M18.174,7.59H5.83c-0.46,0-0.849,0.403-0.849,0.899v7.392c0,0.496,0.388,0.898,0.867,0.898H9.22
		c0.361,0,0.671-0.23,0.802-0.557l0.98-2.453c0.166-0.414,0.559-0.705,1.018-0.705c0.459,0,0.854,0.291,1.019,0.705l0.979,2.453
		c0.132,0.326,0.441,0.557,0.782,0.557h3.373c0.498,0,0.885-0.402,0.885-0.898V8.489C19.059,7.993,18.672,7.59,18.174,7.59z
		 M8.827,13.801c-0.862,0-1.561-0.723-1.561-1.616c0-0.894,0.699-1.618,1.561-1.618c0.863,0,1.56,0.724,1.56,1.618
		C10.387,13.078,9.689,13.801,8.827,13.801z M15.213,13.801c-0.861,0-1.559-0.723-1.559-1.616c0-0.894,0.697-1.617,1.559-1.617
		c0.863,0,1.562,0.723,1.562,1.617C16.774,13.078,16.076,13.801,15.213,13.801z"/>
	<path fill="#1D1D1B" d="M18.174,7.59v-0.5H5.83C5.068,7.097,4.483,7.732,4.481,8.489v7.392c0.001,0.759,0.598,1.396,1.367,1.398
		H9.22c0.58-0.001,1.067-0.369,1.266-0.871l0.98-2.453c0.096-0.237,0.312-0.392,0.554-0.391c0.242-0.001,0.458,0.153,0.554,0.391
		l0-0.001l0.98,2.455v0.001c0.203,0.498,0.674,0.864,1.246,0.869h3.373c0.385,0.001,0.739-0.159,0.986-0.414
		c0.249-0.254,0.398-0.605,0.398-0.984V8.489c0-0.379-0.149-0.73-0.397-0.985c-0.248-0.255-0.603-0.415-0.987-0.414V7.59v0.5
		c0.218,0.002,0.38,0.166,0.385,0.399v7.392c-0.005,0.232-0.167,0.396-0.385,0.398h-3.373c-0.109,0.005-0.258-0.09-0.318-0.244
		v0.001l-0.979-2.451v-0.001c-0.234-0.591-0.807-1.019-1.483-1.02c-0.676,0.001-1.248,0.429-1.482,1.02l-0.98,2.453
		c-0.062,0.15-0.195,0.243-0.337,0.242H5.849c-0.189,0-0.366-0.165-0.367-0.398V8.489c0-0.117,0.045-0.219,0.114-0.291L5.83,8.09
		h12.344V7.59z M8.827,13.801v-0.5c-0.572-0.001-1.059-0.486-1.061-1.116c0.001-0.631,0.489-1.117,1.061-1.118
		c0.572,0.001,1.058,0.486,1.06,1.118c-0.001,0.63-0.488,1.115-1.06,1.116V13.801v0.5c1.152-0.002,2.058-0.96,2.06-2.116
		c-0.002-1.155-0.906-2.115-2.06-2.118c-1.152,0.002-2.059,0.961-2.061,2.118c0.002,1.156,0.909,2.114,2.061,2.116V13.801z
		 M15.213,13.801v-0.5c-0.571-0.001-1.057-0.485-1.059-1.116c0.002-0.631,0.487-1.116,1.059-1.117
		c0.574,0.001,1.06,0.486,1.062,1.117c-0.002,0.63-0.487,1.115-1.062,1.116V13.801v0.5c1.152-0.002,2.06-0.96,2.062-2.116
		c-0.002-1.156-0.909-2.115-2.062-2.117c-1.151,0.002-2.057,0.961-2.059,2.117c0.002,1.156,0.907,2.114,2.059,2.116V13.801z"/>
</g>
</svg>
