<?xml version="1.0" encoding="utf-8"?>
<!-- Generator: Adobe Illustrator 15.1.0, SVG Export Plug-In . SVG Version: 6.00 Build 0)  -->
<!DOCTYPE svg PUBLIC "-//W3C//DTD SVG 1.1//EN" "http://www.w3.org/Graphics/SVG/1.1/DTD/svg11.dtd">
<svg version="1.1" id="Layer_1" xmlns="http://www.w3.org/2000/svg" xmlns:xlink="http://www.w3.org/1999/xlink" x="0px" y="0px"
	 width="24px" height="24px" viewBox="0 0 24 24" enable-background="new 0 0 24 24" xml:space="preserve">
<path fill="#FFFFFF" stroke="#FFFFFF" stroke-width="2" stroke-miterlimit="10" d="M8.175,7.582V6.263
	c0-0.353-0.285-0.638-0.638-0.638H6.263c-0.353,0-0.638,0.285-0.638,0.638v1.275V7.529c0,0.357,0.285,0.646,0.638,0.646H6.218h1.319
	c0.353,0,0.638-0.285,0.638-0.638"/>
<path fill="#FFFFFF" stroke="#FFFFFF" stroke-width="2" stroke-miterlimit="10" d="M13.275,7.582V6.263
	c0-0.353-0.286-0.638-0.638-0.638h-1.275c-0.353,0-0.638,0.285-0.638,0.638v1.275V7.529c0,0.357,0.285,0.646,0.638,0.646h-0.044
	h1.319c0.352,0,0.638-0.285,0.638-0.638"/>
<path fill="#FFFFFF" stroke="#FFFFFF" stroke-width="2" stroke-miterlimit="10" d="M8.175,12.682v-1.319
	c0-0.353-0.285-0.638-0.638-0.638H6.263c-0.353,0-0.638,0.285-0.638,0.638v1.275v-0.009c0,0.357,0.285,0.646,0.638,0.646H6.218
	h1.319c0.353,0,0.638-0.286,0.638-0.638"/>
<path fill="#FFFFFF" stroke="#FFFFFF" stroke-width="2" stroke-miterlimit="10" d="M13.275,12.682v-1.319
	c0-0.353-0.286-0.638-0.638-0.638h-1.275c-0.352,0-0.638,0.285-0.638,0.638v1.275v-0.009c0,0.357,0.286,0.646,0.638,0.646h-0.045
	h1.32c0.352,0,0.638-0.286,0.638-0.638"/>
<path fill="#FFFFFF" stroke="#FFFFFF" stroke-width="2" stroke-miterlimit="10" d="M18.375,12.683v-1.32
	c0-0.352-0.285-0.638-0.637-0.638h-1.275c-0.352,0-0.638,0.286-0.638,0.638v1.275v-0.008c0,0.357,0.286,0.646,0.638,0.646h-0.045
	h1.32c0.352,0,0.637-0.286,0.637-0.638"/>
<path fill="#FFFFFF" stroke="#FFFFFF" stroke-width="2" stroke-miterlimit="10" d="M18.375,7.582V6.263
	c0-0.353-0.285-0.638-0.637-0.638h-1.275c-0.352,0-0.638,0.285-0.638,0.638v1.275V7.529c0,0.357,0.286,0.646,0.638,0.646h-0.045
	h1.32c0.352,0,0.637-0.285,0.637-0.638"/>
<path fill="#FFFFFF" stroke="#FFFFFF" stroke-width="2" stroke-miterlimit="10" d="M8.175,17.782v-1.319
	c0-0.352-0.285-0.638-0.638-0.638H6.263c-0.353,0-0.638,0.286-0.638,0.638v1.275v-0.009c0,0.356,0.285,0.646,0.638,0.646H6.218
	h1.319c0.353,0,0.638-0.285,0.638-0.637"/>
<path fill="#FFFFFF" stroke="#FFFFFF" stroke-width="2" stroke-miterlimit="10" d="M13.275,17.782v-1.319
	c0-0.352-0.286-0.638-0.638-0.638h-1.275c-0.352,0-0.638,0.286-0.638,0.638v1.275v-0.009c0,0.356,0.286,0.646,0.638,0.646h-0.045
	h1.32c0.352,0,0.638-0.285,0.638-0.637"/>
<path fill="#FFFFFF" stroke="#FFFFFF" stroke-width="2" stroke-miterlimit="10" d="M18.375,17.782v-1.319
	c0-0.352-0.285-0.638-0.637-0.638h-1.275c-0.352,0-0.638,0.286-0.638,0.638v1.275v-0.009c0,0.356,0.286,0.646,0.638,0.646h-0.045
	h1.32c0.352,0,0.637-0.285,0.637-0.637"/>
<path fill="none" stroke="#FFFFFF" stroke-width="2" stroke-miterlimit="10" d="M22.2,17.455V6.9c0-2.819-2.281-5.1-5.101-5.1H6.9
	c-2.819,0-5.1,2.281-5.1,5.1v10.2v-0.07c0,2.858,2.281,5.171,5.1,5.171H6.546H17.1c2.819,0,5.101-2.281,5.101-5.101"/>
</svg>
