<?xml version="1.0" encoding="utf-8"?>
<!-- Generator: Adobe Illustrator 15.1.0, SVG Export Plug-In . SVG Version: 6.00 Build 0)  -->
<!DOCTYPE svg PUBLIC "-//W3C//DTD SVG 1.1//EN" "http://www.w3.org/Graphics/SVG/1.1/DTD/svg11.dtd">
<svg version="1.1" id="logo" xmlns="http://www.w3.org/2000/svg" xmlns:xlink="http://www.w3.org/1999/xlink" x="0px" y="0px"
	 width="24px" height="24px" viewBox="0 0 24 24" enable-background="new 0 0 24 24" xml:space="preserve">
<polygon fill="#FFFFFF" stroke="#1D1D1B" stroke-width="0.5" stroke-miterlimit="10" points="3.75,5.25 3.75,11.25 0.75,11.25 
	0.75,2.25 9.75,2.25 9.75,5.25 "/>
<polygon fill="#FFFFFF" stroke="#1D1D1B" stroke-width="0.5" stroke-miterlimit="10" points="3.75,18.75 9.75,18.75 9.75,21.75 
	0.75,21.75 0.75,12.75 3.75,12.75 "/>
<polygon fill="#FFFFFF" stroke="#1D1D1B" stroke-width="0.5" stroke-miterlimit="10" points="20.25,18.75 20.25,12.75 23.25,12.75 
	23.25,21.75 14.25,21.75 14.25,18.75 "/>
<polygon fill="#FFFFFF" stroke="#1D1D1B" stroke-width="0.5" stroke-miterlimit="10" points="20.25,5.25 14.25,5.25 14.25,2.25 
	23.25,2.25 23.25,11.25 20.25,11.25 "/>
<g>
</g>
<line fill="none" x1="4.5" y1="9" x2="4.5" y2="18"/>
<line fill="none" x1="7.5" y1="18" x2="12" y2="10.5"/>
<g>
	<path fill="#1D1D1B" d="M4.709,13.941h6.161v-1.155h1.03V6H4.709V13.941z"/>
	<g id="XMLID_1_">
		<g>
			<polygon fill="#FFFFFF" points="9.949,11.771 9.949,12.92 5.627,12.92 5.627,7.01 7.842,7.01 7.842,11.621 8.759,11.621 
				8.759,7.01 10.984,7.01 10.984,11.771 			"/>
		</g>
		<g>
		</g>
	</g>
	<path fill="#1D1D1B" d="M12.309,6v7.941H19.5V6H12.309z"/>
	<g id="XMLID_2_">
		<g>
			<polygon fill="#FFFFFF" points="15.441,10.621 15.441,12.92 13.227,12.92 13.227,7.01 18.583,7.01 18.583,9.46 17.53,9.46 
				17.53,10.48 18.583,10.48 18.583,12.92 16.368,12.92 16.368,10.621 			"/>
		</g>
		<g>
		</g>
	</g>
	<rect x="15.444" y="8.321" fill="#1D1D1B" width="0.92" height="1.012"/>
</g>
<g>
	<path d="M19.191,14.751h-1.584v0.469h-1.226V18h2.81V14.751z M16.221,14.751h-2.809V18h2.809V14.751z M13.253,15.22h-1.225v-0.469
		h-1.584V18h2.81V15.22z M10.283,14.751h-2.81V18h2.81V14.751z M7.317,14.751H4.5V18h2.817V14.751z"/>
	<g id="XMLID_7_">
		<g>
			<path fill="#FFFFFF" d="M17.604,16.171v0.88h0.364v-0.88H17.604z M16.736,17.581v-1.94h1.231v-0.479h0.867v2.42H16.736z"/>
		</g>
		<g>
		</g>
	</g>
	<g id="XMLID_6_">
		<g>
			<path fill="#FFFFFF" d="M14.638,16.111h0.355v-0.41h-0.355V16.111z M15.86,15.161v1.479h-1.223v0.41h1.223v0.53h-2.09v-2.42
				H15.86z"/>
		</g>
		<g>
		</g>
	</g>
	<g id="XMLID_5_">
		<g>
			<path fill="#FFFFFF" d="M12.027,17.051v-0.88h-0.355v0.88H12.027z M12.895,15.641v1.94h-2.09v-2.42h0.867v0.479H12.895z"/>
		</g>
		<g>
		</g>
	</g>
	<g id="XMLID_4_">
		<g>
			<polygon fill="#FFFFFF" points="9.92,15.161 9.92,17.581 9.46,17.581 9.46,16.641 9.105,16.641 9.105,17.581 8.654,17.581 
				8.654,16.641 8.29,16.641 8.29,17.581 7.831,17.581 7.831,15.161 8.698,15.161 8.698,16.111 9.062,16.111 9.062,15.161 			"/>
		</g>
		<g>
		</g>
	</g>
	<g id="XMLID_3_">
		<g>
			<polygon fill="#FFFFFF" points="6.955,16.111 6.955,16.641 5.732,16.641 5.732,17.051 6.955,17.051 6.955,17.581 4.856,17.581 
				4.856,15.161 6.955,15.161 6.955,15.691 5.732,15.691 5.732,16.111 			"/>
		</g>
		<g>
		</g>
	</g>
</g>
</svg>
