<?xml version="1.0" encoding="utf-8"?>
<!-- Generator: Adobe Illustrator 15.1.0, SVG Export Plug-In . SVG Version: 6.00 Build 0)  -->
<!DOCTYPE svg PUBLIC "-//W3C//DTD SVG 1.1//EN" "http://www.w3.org/Graphics/SVG/1.1/DTD/svg11.dtd">
<svg version="1.1" id="logo" xmlns="http://www.w3.org/2000/svg" xmlns:xlink="http://www.w3.org/1999/xlink" x="0px" y="0px"
	 width="24px" height="24px" viewBox="0 0 24 24" enable-background="new 0 0 24 24" xml:space="preserve">
<g>
	<rect y="9.375" fill="none" width="24" height="5.25"/>
	<path fill="#FFFFFF" stroke="#1D1D1B" stroke-width="0.2" stroke-miterlimit="10" d="M1.401,13.517l-1.027-2.999h0.864l0.632,2.047
		h0.012l0.632-2.047h0.817l-1.015,2.999H1.401z"/>
	<path fill="#FFFFFF" stroke="#1D1D1B" stroke-width="0.2" stroke-miterlimit="10" d="M4.226,10.518v0.557h0.012
		c0.039-0.093,0.091-0.179,0.156-0.258c0.066-0.08,0.141-0.147,0.227-0.203c0.085-0.056,0.176-0.1,0.272-0.13
		c0.097-0.031,0.197-0.046,0.302-0.046c0.054,0,0.114,0.009,0.18,0.029v0.766c-0.039-0.008-0.085-0.015-0.139-0.021
		s-0.106-0.008-0.157-0.008c-0.151,0-0.278,0.025-0.383,0.075s-0.188,0.119-0.252,0.206c-0.063,0.087-0.109,0.188-0.136,0.304
		c-0.027,0.116-0.041,0.242-0.041,0.377v1.352H3.442v-2.999H4.226z"/>
	<path fill="#FFFFFF" stroke="#1D1D1B" stroke-width="0.2" stroke-miterlimit="10" d="M8.651,9.375v0.766H6.465v0.887h2.006v0.708
		H6.465v1.015h2.233v0.766H5.554V9.375H8.651z"/>
	<path fill="#FFFFFF" stroke="#1D1D1B" stroke-width="0.2" stroke-miterlimit="10" d="M9.794,10.518v0.406h0.011
		c0.108-0.154,0.239-0.274,0.392-0.359c0.152-0.085,0.327-0.127,0.525-0.127c0.189,0,0.361,0.037,0.518,0.11
		c0.158,0.074,0.275,0.203,0.357,0.389c0.088-0.131,0.209-0.248,0.363-0.348c0.152-0.1,0.332-0.15,0.541-0.15
		c0.158,0,0.307,0.019,0.441,0.058c0.135,0.039,0.252,0.101,0.348,0.186c0.098,0.085,0.172,0.196,0.227,0.333
		c0.055,0.138,0.08,0.303,0.08,0.496v2.007h-0.822v-1.699c0-0.101-0.004-0.195-0.012-0.284s-0.029-0.167-0.064-0.232
		c-0.035-0.065-0.086-0.118-0.154-0.156c-0.066-0.039-0.158-0.058-0.275-0.058c-0.115,0-0.209,0.022-0.281,0.067
		c-0.07,0.044-0.127,0.102-0.168,0.174c-0.039,0.072-0.066,0.153-0.08,0.244s-0.021,0.183-0.021,0.275v1.67h-0.822v-1.682
		c0-0.089-0.002-0.177-0.006-0.264s-0.021-0.167-0.051-0.241c-0.027-0.073-0.076-0.132-0.145-0.177
		c-0.067-0.044-0.167-0.067-0.299-0.067c-0.038,0-0.09,0.009-0.153,0.026c-0.063,0.018-0.126,0.05-0.186,0.099
		c-0.06,0.048-0.111,0.118-0.154,0.209S9.84,11.63,9.84,11.776v1.74H9.017v-2.999H9.794z"/>
	<path fill="#FFFFFF" stroke="#1D1D1B" stroke-width="0.2" stroke-miterlimit="10" d="M14.84,9.375v1.508h0.012
		c0.101-0.154,0.236-0.268,0.409-0.339c0.172-0.071,0.351-0.107,0.536-0.107c0.15,0,0.3,0.031,0.446,0.093
		c0.147,0.062,0.279,0.156,0.397,0.284c0.118,0.127,0.214,0.291,0.287,0.49c0.073,0.199,0.11,0.436,0.11,0.71
		c0,0.275-0.037,0.512-0.11,0.711s-0.169,0.363-0.287,0.49c-0.118,0.128-0.25,0.223-0.397,0.284
		c-0.146,0.062-0.296,0.093-0.446,0.093c-0.221,0-0.418-0.035-0.592-0.104c-0.174-0.07-0.306-0.188-0.395-0.354H14.8v0.383h-0.783
		V9.375H14.84z M16.174,11.655c-0.027-0.116-0.069-0.218-0.128-0.308c-0.058-0.089-0.13-0.159-0.217-0.211s-0.192-0.078-0.316-0.078
		c-0.12,0-0.225,0.026-0.313,0.078s-0.162,0.123-0.22,0.211c-0.059,0.089-0.101,0.191-0.128,0.308s-0.041,0.238-0.041,0.365
		c0,0.124,0.014,0.244,0.041,0.36c0.027,0.116,0.069,0.218,0.128,0.307c0.058,0.089,0.131,0.16,0.22,0.212s0.193,0.078,0.313,0.078
		c0.124,0,0.229-0.026,0.316-0.078s0.159-0.123,0.217-0.212c0.059-0.089,0.101-0.191,0.128-0.307
		c0.027-0.116,0.041-0.236,0.041-0.36C16.215,11.893,16.201,11.771,16.174,11.655z"/>
	<path fill="#FFFFFF" stroke="#1D1D1B" stroke-width="0.2" stroke-miterlimit="10" d="M18.209,12.797
		c0.124,0.12,0.302,0.18,0.534,0.18c0.166,0,0.31-0.042,0.429-0.125c0.12-0.083,0.193-0.171,0.221-0.264h0.725
		c-0.115,0.36-0.293,0.617-0.533,0.771c-0.239,0.155-0.529,0.232-0.87,0.232c-0.235,0-0.448-0.037-0.638-0.113
		c-0.189-0.075-0.351-0.182-0.481-0.321c-0.132-0.14-0.233-0.306-0.305-0.499s-0.107-0.406-0.107-0.638
		c0-0.224,0.037-0.433,0.11-0.626s0.178-0.361,0.313-0.502c0.135-0.141,0.297-0.252,0.484-0.333s0.396-0.122,0.623-0.122
		c0.256,0,0.478,0.049,0.667,0.147c0.189,0.099,0.346,0.231,0.467,0.397c0.122,0.167,0.21,0.356,0.265,0.568
		c0.054,0.213,0.073,0.435,0.058,0.667h-2.163C18.018,12.484,18.086,12.678,18.209,12.797z M19.141,11.22
		c-0.099-0.108-0.249-0.162-0.45-0.162c-0.131,0-0.24,0.022-0.327,0.066s-0.156,0.1-0.209,0.166
		c-0.052,0.065-0.089,0.135-0.11,0.208c-0.021,0.074-0.033,0.139-0.037,0.197h1.34C19.308,11.487,19.239,11.328,19.141,11.22z"/>
	<path fill="#FFFFFF" stroke="#1D1D1B" stroke-width="0.2" stroke-miterlimit="10" d="M22.554,13.134
		c-0.097,0.163-0.223,0.279-0.38,0.351c-0.156,0.072-0.333,0.107-0.53,0.107c-0.225,0-0.422-0.043-0.592-0.131
		c-0.17-0.086-0.311-0.204-0.42-0.354c-0.11-0.148-0.193-0.32-0.25-0.513c-0.056-0.193-0.084-0.394-0.084-0.603
		c0-0.201,0.028-0.396,0.084-0.583c0.057-0.188,0.14-0.353,0.25-0.496c0.109-0.143,0.248-0.258,0.414-0.345s0.359-0.13,0.58-0.13
		c0.178,0,0.347,0.038,0.508,0.113c0.16,0.076,0.287,0.187,0.38,0.333h0.012V9.375h0.823v4.141h-0.783v-0.383H22.554z M22.52,11.652
		c-0.023-0.114-0.063-0.214-0.119-0.302c-0.056-0.087-0.129-0.157-0.218-0.211s-0.201-0.081-0.336-0.081
		c-0.136,0-0.25,0.027-0.343,0.081s-0.167,0.125-0.223,0.214c-0.057,0.089-0.097,0.19-0.122,0.305s-0.038,0.233-0.038,0.356
		c0,0.116,0.014,0.232,0.041,0.348c0.027,0.116,0.07,0.22,0.131,0.311c0.06,0.091,0.135,0.164,0.226,0.22s0.2,0.084,0.328,0.084
		c0.135,0,0.248-0.027,0.339-0.081s0.163-0.126,0.218-0.217c0.054-0.091,0.093-0.194,0.116-0.311
		c0.023-0.116,0.034-0.236,0.034-0.359C22.554,11.885,22.543,11.766,22.52,11.652z"/>
</g>
</svg>
