<?xml version="1.0" encoding="utf-8"?>
<!-- Generator: Adobe Illustrator 15.1.0, SVG Export Plug-In . SVG Version: 6.00 Build 0)  -->
<!DOCTYPE svg PUBLIC "-//W3C//DTD SVG 1.1 Tiny//EN" "http://www.w3.org/Graphics/SVG/1.1/DTD/svg11-tiny.dtd">
<svg version="1.1" baseProfile="tiny" id="logo2" xmlns="http://www.w3.org/2000/svg" xmlns:xlink="http://www.w3.org/1999/xlink"
	 x="0px" y="0px" width="24px" height="24px" viewBox="0 0 24 24" overflow="inherit" xml:space="preserve">
<circle fill="#FFFFFF" stroke="#1D1D1B" stroke-miterlimit="10" cx="12.042" cy="12.042" r="11.25"/>
<path fill="none" stroke="#666666" stroke-miterlimit="10" d="M21,12.083c0-5.009-4.025-9.062-9-9.062"/>
<g>
	<path fill="#1D1D1B" d="M5.357,8.807h0.896L5.1,12H4.22L3.075,8.807h0.938c0.222,0.785,0.443,1.57,0.665,2.355
		C4.904,10.377,5.13,9.592,5.357,8.807L5.357,8.807z"/>
	<path fill="#1D1D1B" d="M8.212,8.732c0.157,0.014,0.072,0.694,0.072,0.86C6.931,9.441,7.271,11.105,7.271,12H6.43V8.807h0.797
		v0.557C7.45,8.994,7.743,8.689,8.212,8.732C8.223,8.733,8.202,8.731,8.212,8.732z"/>
	<path fill="#FF9900" d="M6.65,13.176H4.365v0.916h2.098v0.75H4.365v1.111h2.391v0.775H3.483v-4.318c0.722,0,1.443,0,2.165,0
		c0.313,0,0.626,0,0.939,0C6.729,12.411,6.65,13.035,6.65,13.176L6.65,13.176z"/>
	<path fill="#FF9900" d="M11.088,13.547c0.936,0.374,0.58,2.389,0.577,3.182H10.81v-2.033c0-0.44-0.49-0.719-0.834-0.394
		c-0.199,0.187-0.179,0.476-0.179,0.724c0,0.568,0,1.136,0,1.703H8.955v-1.9c0-0.993-1.02-0.688-1.02,0.179c0,0.573,0,1.147,0,1.722
		H7.089v-3.188H7.9v0.467c0.397-0.637,1.464-0.813,1.79,0.002C9.973,13.526,10.572,13.341,11.088,13.547
		C11.225,13.602,10.951,13.492,11.088,13.547z"/>
	<path fill="#FF9900" d="M14.877,13.92c1.094,1.384-0.7,4.122-1.933,2.408c0,0.13-0.019,0.272,0,0.4h-0.823v-4.312h0.835v1.535
		C13.412,13.315,14.391,13.302,14.877,13.92C15.116,14.223,14.639,13.617,14.877,13.92z M14.179,15.865
		c0.51-0.737-0.293-2.408-1.054-1.438C12.521,15.196,13.493,16.856,14.179,15.865C14.299,15.691,14.059,16.039,14.179,15.865z"/>
	<path fill="#FF9900" d="M17.608,13.6c0.708,0.316,0.844,1.075,0.834,1.768c-0.775,0-1.551,0-2.326,0
		c0.024,0.606,0.722,1.086,1.258,0.646c0.339-0.277,0.55-0.219,1.024-0.219c-0.17,1.43-2.557,1.3-3.001,0.133
		C14.847,14.482,16.067,12.91,17.608,13.6C17.831,13.699,17.386,13.5,17.608,13.6z M16.359,14.322
		c-0.127,0.141-0.201,0.305-0.223,0.494c0.479,0,0.959,0,1.438,0C17.535,14.247,16.798,13.865,16.359,14.322
		C16.241,14.443,16.478,14.199,16.359,14.322z"/>
	<path fill="#FF9900" d="M20.27,13.587c0.152,0.086,0.274,0.204,0.366,0.353c0-0.508,0-1.015,0-1.523h0.847v4.312h-0.812v-0.441
		c-0.727,1.156-2.156,0.301-2.284-0.799C18.271,14.495,19.014,12.877,20.27,13.587C20.42,13.672,20.119,13.502,20.27,13.587z
		 M20.475,15.861c0.558-0.797-0.434-2.412-1.071-1.396C18.939,15.224,19.753,16.893,20.475,15.861
		C20.598,15.686,20.352,16.037,20.475,15.861z"/>
</g>
</svg>
