<?xml version="1.0" encoding="utf-8"?>
<!-- Generator: Adobe Illustrator 15.1.0, SVG Export Plug-In . SVG Version: 6.00 Build 0)  -->
<!DOCTYPE svg PUBLIC "-//W3C//DTD SVG 1.1//EN" "http://www.w3.org/Graphics/SVG/1.1/DTD/svg11.dtd">
<svg version="1.1" id="settings" xmlns="http://www.w3.org/2000/svg" xmlns:xlink="http://www.w3.org/1999/xlink" x="0px" y="0px"
	 width="24px" height="24px" viewBox="0 0 24 24" enable-background="new 0 0 24 24" xml:space="preserve">
<g>
	<path fill="#FFFFFF" d="M19,13.5c0.275,0,0.5-0.225,0.5-0.5v-2c0-0.275-0.225-0.5-0.5-0.5h-0.696c-0.275,0-0.571-0.213-0.659-0.474
		l-0.257-0.622c-0.123-0.246-0.064-0.606,0.13-0.801l0.493-0.493c0.194-0.194,0.194-0.513,0-0.707L16.597,5.99
		c-0.194-0.194-0.513-0.194-0.707,0l-0.493,0.493c-0.194,0.194-0.555,0.253-0.801,0.13l-0.622-0.256
		C13.713,6.269,13.5,5.972,13.5,5.697V5c0-0.275-0.225-0.5-0.5-0.5h-2c-0.275,0-0.5,0.225-0.5,0.5v0.697
		c0,0.275-0.213,0.571-0.474,0.659L9.404,6.612c-0.246,0.123-0.606,0.064-0.801-0.13L8.111,5.989c-0.194-0.194-0.513-0.194-0.707,0
		L5.99,7.403c-0.194,0.194-0.194,0.513,0,0.707l0.493,0.493c0.194,0.194,0.253,0.555,0.13,0.801l-0.257,0.623
		C6.268,10.287,5.972,10.5,5.697,10.5H5c-0.275,0-0.5,0.225-0.5,0.5v2c0,0.275,0.225,0.5,0.5,0.5h0.697
		c0.275,0,0.571,0.213,0.659,0.474l0.256,0.622c0.123,0.246,0.064,0.606-0.13,0.801l-0.493,0.492c-0.194,0.194-0.194,0.513,0,0.707
		l1.414,1.414c0.194,0.194,0.513,0.194,0.707,0l0.492-0.492c0.194-0.194,0.555-0.253,0.801-0.13l0.623,0.257
		c0.261,0.088,0.474,0.384,0.474,0.659V19c0,0.275,0.225,0.5,0.5,0.5h2c0.275,0,0.5-0.225,0.5-0.5v-0.696
		c0-0.275,0.213-0.571,0.474-0.659l0.622-0.256c0.246-0.123,0.606-0.064,0.801,0.13l0.492,0.492c0.194,0.194,0.513,0.194,0.707,0
		l1.414-1.414c0.194-0.194,0.194-0.513,0-0.707l-0.492-0.492c-0.194-0.194-0.253-0.555-0.13-0.801l0.257-0.623
		c0.088-0.261,0.384-0.474,0.659-0.474H19z M12,13.5c-0.829,0-1.5-0.671-1.5-1.5c0-0.828,0.671-1.5,1.5-1.5s1.5,0.671,1.5,1.5
		C13.5,12.829,12.829,13.5,12,13.5z"/>
	<path fill="none" stroke="#1D1D1B" stroke-width="0.2" stroke-miterlimit="10" d="M19,13.5c0.275,0,0.5-0.225,0.5-0.5v-2
		c0-0.275-0.225-0.5-0.5-0.5h-0.696c-0.275,0-0.571-0.213-0.659-0.474l-0.257-0.622c-0.123-0.246-0.064-0.606,0.13-0.801
		l0.493-0.493c0.194-0.194,0.194-0.513,0-0.707L16.597,5.99c-0.194-0.194-0.513-0.194-0.707,0l-0.493,0.493
		c-0.194,0.194-0.555,0.253-0.801,0.13l-0.622-0.256C13.713,6.269,13.5,5.972,13.5,5.697V5c0-0.275-0.225-0.5-0.5-0.5h-2
		c-0.275,0-0.5,0.225-0.5,0.5v0.697c0,0.275-0.213,0.571-0.474,0.659L9.404,6.612c-0.246,0.123-0.606,0.064-0.801-0.13L8.111,5.989
		c-0.194-0.194-0.513-0.194-0.707,0L5.99,7.403c-0.194,0.194-0.194,0.513,0,0.707l0.493,0.493c0.194,0.194,0.253,0.555,0.13,0.801
		l-0.257,0.623C6.268,10.287,5.972,10.5,5.697,10.5H5c-0.275,0-0.5,0.225-0.5,0.5v2c0,0.275,0.225,0.5,0.5,0.5h0.697
		c0.275,0,0.571,0.213,0.659,0.474l0.256,0.622c0.123,0.246,0.064,0.606-0.13,0.801l-0.493,0.492c-0.194,0.194-0.194,0.513,0,0.707
		l1.414,1.414c0.194,0.194,0.513,0.194,0.707,0l0.492-0.492c0.194-0.194,0.555-0.253,0.801-0.13l0.623,0.257
		c0.261,0.088,0.474,0.384,0.474,0.659V19c0,0.275,0.225,0.5,0.5,0.5h2c0.275,0,0.5-0.225,0.5-0.5v-0.696
		c0-0.275,0.213-0.571,0.474-0.659l0.622-0.256c0.246-0.123,0.606-0.064,0.801,0.13l0.492,0.492c0.194,0.194,0.513,0.194,0.707,0
		l1.414-1.414c0.194-0.194,0.194-0.513,0-0.707l-0.492-0.492c-0.194-0.194-0.253-0.555-0.13-0.801l0.257-0.623
		c0.088-0.261,0.384-0.474,0.659-0.474H19z M12,13.5c-0.829,0-1.5-0.671-1.5-1.5c0-0.828,0.671-1.5,1.5-1.5s1.5,0.671,1.5,1.5
		C13.5,12.829,12.829,13.5,12,13.5z"/>
</g>
</svg>
