<?xml version="1.0" encoding="utf-8"?>
<!-- Generator: Adobe Illustrator 15.1.0, SVG Export Plug-In . SVG Version: 6.00 Build 0)  -->
<!DOCTYPE svg PUBLIC "-//W3C//DTD SVG 1.1//EN" "http://www.w3.org/Graphics/SVG/1.1/DTD/svg11.dtd">
<svg version="1.1" id="sharesheet" xmlns="http://www.w3.org/2000/svg" xmlns:xlink="http://www.w3.org/1999/xlink" x="0px" y="0px"
	 width="24px" height="24px" viewBox="0 0 24 24" enable-background="new 0 0 24 24" xml:space="preserve">
<g>
	<g>
		<path fill="#FFFFFF" stroke="#1D1D1B" stroke-width="0.2" stroke-miterlimit="10" d="M18.75,15c-0.994,0-1.893,0.395-2.563,1.026
			l-7.318-3.091C8.946,12.635,9,12.325,9,12s-0.054-0.635-0.132-0.936l7.318-3.091C16.856,8.605,17.755,9,18.75,9
			c2.07,0,3.75-1.68,3.75-3.75c0-2.071-1.68-3.75-3.75-3.75S15,3.179,15,5.25c0,0.257,0.026,0.507,0.075,0.749l-7.43,3.138
			C6.994,8.592,6.166,8.25,5.25,8.25C3.179,8.25,1.5,9.929,1.5,12c0,2.07,1.679,3.75,3.75,3.75c0.917,0,1.745-0.342,2.396-0.888
			L15.075,18C15.026,18.243,15,18.493,15,18.75c0,2.07,1.68,3.75,3.75,3.75s3.75-1.68,3.75-3.75S20.82,15,18.75,15z"/>
	</g>
</g>
</svg>
