<?xml version="1.0" encoding="utf-8"?>
<!-- Generator: Adobe Illustrator 15.1.0, SVG Export Plug-In . SVG Version: 6.00 Build 0)  -->
<!DOCTYPE svg PUBLIC "-//W3C//DTD SVG 1.1//EN" "http://www.w3.org/Graphics/SVG/1.1/DTD/svg11.dtd">
<svg version="1.1" id="Layer_1" xmlns="http://www.w3.org/2000/svg" xmlns:xlink="http://www.w3.org/1999/xlink" x="0px" y="0px"
	 width="24px" height="24px" viewBox="0 0 24 24" enable-background="new 0 0 24 24" xml:space="preserve">
<g>
	<path fill="#FFFFFF" d="M9.405,15.444c0.078-0.545-0.304-0.927-0.848-0.849l-5.446,0.777c-0.544,0.078-0.671,0.46-0.283,0.849
		l0.707,0.707c0.389,0.389,0.389,1.025,0,1.414l-2.828,2.829c-0.389,0.389-0.389,1.025,0,1.414l0.707,0.707
		c0.389,0.389,1.025,0.389,1.414,0l2.829-2.828c0.389-0.389,1.025-0.389,1.414,0l0.707,0.707c0.389,0.389,0.771,0.262,0.849-0.283
		L9.405,15.444z"/>
	<path fill="none" stroke="#000000" stroke-miterlimit="10" d="M9.405,15.444c0.078-0.545-0.304-0.927-0.848-0.849l-5.446,0.777
		c-0.544,0.078-0.671,0.46-0.283,0.849l0.707,0.707c0.389,0.389,0.389,1.025,0,1.414l-2.828,2.829c-0.389,0.389-0.389,1.025,0,1.414
		l0.707,0.707c0.389,0.389,1.025,0.389,1.414,0l2.829-2.828c0.389-0.389,1.025-0.389,1.414,0l0.707,0.707
		c0.389,0.389,0.771,0.262,0.849-0.283L9.405,15.444z"/>
</g>
<g>
	<path fill="#FFFFFF" d="M14.595,8.557c-0.078,0.544,0.304,0.926,0.849,0.848l5.445-0.777c0.545-0.078,0.672-0.46,0.283-0.849
		l-0.707-0.707c-0.389-0.389-0.389-1.025,0-1.414l2.828-2.83c0.389-0.389,0.389-1.025,0-1.414l-0.707-0.707
		c-0.389-0.389-1.025-0.389-1.414,0l-2.829,2.829c-0.389,0.389-1.025,0.389-1.414,0l-0.707-0.708
		c-0.389-0.389-0.771-0.262-0.849,0.283L14.595,8.557z"/>
	<path fill="none" stroke="#000000" stroke-miterlimit="10" d="M14.595,8.557c-0.078,0.544,0.304,0.926,0.849,0.848l5.445-0.777
		c0.545-0.078,0.672-0.46,0.283-0.849l-0.707-0.707c-0.389-0.389-0.389-1.025,0-1.414l2.828-2.83c0.389-0.389,0.389-1.025,0-1.414
		l-0.707-0.707c-0.389-0.389-1.025-0.389-1.414,0l-2.829,2.829c-0.389,0.389-1.025,0.389-1.414,0l-0.707-0.708
		c-0.389-0.389-0.771-0.262-0.849,0.283L14.595,8.557z"/>
</g>
<g>
	<path fill="#FFFFFF" d="M15.444,14.595c-0.545-0.078-0.927,0.304-0.849,0.849l0.777,5.445c0.078,0.545,0.46,0.672,0.849,0.283
		l0.707-0.707c0.389-0.389,1.025-0.389,1.414,0l2.829,2.828c0.389,0.389,1.025,0.389,1.414,0l0.707-0.707
		c0.389-0.389,0.389-1.025,0-1.414l-2.828-2.829c-0.389-0.389-0.389-1.025,0-1.414l0.707-0.707c0.389-0.389,0.262-0.771-0.283-0.849
		L15.444,14.595z"/>
	<path fill="none" stroke="#000000" stroke-miterlimit="10" d="M15.444,14.595c-0.545-0.078-0.927,0.304-0.849,0.849l0.777,5.445
		c0.078,0.545,0.46,0.672,0.849,0.283l0.707-0.707c0.389-0.389,1.025-0.389,1.414,0l2.829,2.828c0.389,0.389,1.025,0.389,1.414,0
		l0.707-0.707c0.389-0.389,0.389-1.025,0-1.414l-2.828-2.829c-0.389-0.389-0.389-1.025,0-1.414l0.707-0.707
		c0.389-0.389,0.262-0.771-0.283-0.849L15.444,14.595z"/>
</g>
<g>
	<path fill="#FFFFFF" d="M8.557,9.405c0.544,0.078,0.926-0.304,0.848-0.848L8.628,3.111C8.55,2.566,8.168,2.439,7.779,2.828
		L7.072,3.535c-0.389,0.389-1.025,0.389-1.414,0l-2.83-2.828c-0.389-0.389-1.025-0.389-1.414,0L0.707,1.414
		c-0.389,0.389-0.389,1.025,0,1.414l2.828,2.829c0.389,0.389,0.389,1.025,0,1.414L2.829,7.778C2.44,8.167,2.567,8.549,3.111,8.627
		L8.557,9.405z"/>
	<path fill="none" stroke="#000000" stroke-miterlimit="10" d="M8.557,9.405c0.544,0.078,0.926-0.304,0.848-0.848L8.628,3.111
		C8.55,2.566,8.168,2.439,7.779,2.828L7.072,3.535c-0.389,0.389-1.025,0.389-1.414,0l-2.83-2.828c-0.389-0.389-1.025-0.389-1.414,0
		L0.707,1.414c-0.389,0.389-0.389,1.025,0,1.414l2.828,2.829c0.389,0.389,0.389,1.025,0,1.414L2.829,7.778
		C2.44,8.167,2.567,8.549,3.111,8.627L8.557,9.405z"/>
</g>
<g id="Layer_2">
	<path fill="#FFFFFF" stroke="#000000" stroke-miterlimit="10" d="M20.26,11.99c0,4.018,0,4.018-5.395,4.018h-5.74
		c-5.395,0-5.395,0-5.395-4.018l0,0c0-4.018,0-4.018,5.395-4.018h5.74C20.26,7.972,20.26,7.972,20.26,11.99L20.26,11.99z"/>
</g>
<g id="Layer_3">
	<path fill="#0000FF" stroke="#000000" stroke-miterlimit="10" d="M10.775,12.016c0,1.775,0,1.775-1.772,1.775H7.118
		c-1.773,0-1.773,0-1.773-1.775l0,0c0-1.772,0-1.772,1.773-1.772h1.885C10.775,10.243,10.775,10.243,10.775,12.016L10.775,12.016z"
		/>
	<path fill="#FF0000" stroke="#000000" stroke-miterlimit="10" d="M18.699,12.015c0,1.776,0,1.776-1.772,1.776h-1.886
		c-1.773,0-1.773,0-1.773-1.776l0,0c0-1.772,0-1.772,1.773-1.772h1.886C18.699,10.243,18.699,10.243,18.699,12.015L18.699,12.015z"
		/>
</g>
</svg>
